<?xml version="1.0" encoding="UTF-8"?>
<svg xmlns="http://www.w3.org/2000/svg" viewBox="222 -60 4080 460"><title>Calle de Usera · capa traseras</title><rect x="-1200" y="-60" width="2702" height="454" fill="#b98a6e"/><rect x="-1141.2" y="171.4" width="109.2" height="147" fill="#5a4a52"/><rect x="-1132.8" y="179.8" width="92.4" height="126" fill="#2e2836"/><rect x="-1132.8" y="179.8" width="92.4" height="78.7" fill="#7a6a64"/><rect x="-1153.8" y="305.8" width="134.4" height="10.1" fill="#d8c8b0"/><rect x="-939.6" y="171.4" width="109.2" height="147" fill="#5a4a52"/><rect x="-952.2" y="305.8" width="134.4" height="10.1" fill="#d8c8b0"/><rect x="-738" y="171.4" width="109.2" height="147" fill="#5a4a52"/><rect x="-729.6" y="179.8" width="92.4" height="126" fill="#2e2836"/><rect x="-729.6" y="179.8" width="92.4" height="84.8" fill="#7a6a64"/><rect x="-750.6" y="305.8" width="134.4" height="10.1" fill="#d8c8b0"/><rect x="-536.4" y="171.4" width="109.2" height="147" fill="#5a4a52"/><rect x="-549" y="305.8" width="134.4" height="10.1" fill="#d8c8b0"/><rect x="-334.8" y="171.4" width="109.2" height="147" fill="#5a4a52"/><rect x="-326.4" y="179.8" width="92.4" height="126" fill="#2e2836"/><rect x="-326.4" y="179.8" width="92.4" height="89.1" fill="#7a6a64"/><rect x="-347.4" y="305.8" width="134.4" height="10.1" fill="#d8c8b0"/><rect x="-133.2" y="171.4" width="109.2" height="147" fill="#5a4a52"/><rect x="-124.8" y="179.8" width="92.4" height="126" fill="#2e2836"/><rect x="-124.8" y="179.8" width="92.4" height="40.5" fill="#7a6a64"/><rect x="-145.8" y="305.8" width="134.4" height="10.1" fill="#d8c8b0"/><rect x="-124.8" y="318.4" width="18.5" height="28.8" fill="#e04a3a"/><rect x="-99.6" y="318.4" width="18.5" height="49.2" fill="#f4f0e6"/><rect x="-74.4" y="318.4" width="18.5" height="45.2" fill="#3a7be0"/><rect x="-49.2" y="318.4" width="18.5" height="42.1" fill="#f0c23a"/><rect x="68.4" y="171.4" width="109.2" height="147" fill="#5a4a52"/><rect x="76.8" y="179.8" width="92.4" height="126" fill="#2e2836"/><rect x="76.8" y="179.8" width="92.4" height="90.6" fill="#7a6a64"/><rect x="55.8" y="305.8" width="134.4" height="10.1" fill="#d8c8b0"/><rect x="76.8" y="318.4" width="18.5" height="29.1" fill="#e04a3a"/><rect x="102" y="318.4" width="18.5" height="46.2" fill="#f4f0e6"/><rect x="127.2" y="318.4" width="18.5" height="37" fill="#3a7be0"/><rect x="152.4" y="318.4" width="18.5" height="40.7" fill="#f0c23a"/><rect x="270" y="171.4" width="109.2" height="147" fill="#5a4a52"/><rect x="278.4" y="179.8" width="92.4" height="126" fill="#2e2836"/><rect x="278.4" y="179.8" width="92.4" height="33.2" fill="#7a6a64"/><rect x="257.4" y="305.8" width="134.4" height="10.1" fill="#d8c8b0"/><rect x="278.4" y="318.4" width="18.5" height="44.7" fill="#e04a3a"/><rect x="303.6" y="318.4" width="18.5" height="39.6" fill="#f4f0e6"/><rect x="328.8" y="318.4" width="18.5" height="26.6" fill="#3a7be0"/><rect x="354" y="318.4" width="18.5" height="45.2" fill="#f0c23a"/><rect x="471.6" y="171.4" width="109.2" height="147" fill="#5a4a52"/><rect x="480" y="179.8" width="92.4" height="126" fill="#2e2836"/><rect x="480" y="179.8" width="92.4" height="87" fill="#7a6a64"/><rect x="459" y="305.8" width="134.4" height="10.1" fill="#d8c8b0"/><rect x="480" y="318.4" width="18.5" height="43.4" fill="#e04a3a"/><rect x="505.2" y="318.4" width="18.5" height="27.9" fill="#f4f0e6"/><rect x="530.4" y="318.4" width="18.5" height="46.8" fill="#3a7be0"/><rect x="555.6" y="318.4" width="18.5" height="47.1" fill="#f0c23a"/><rect x="673.2" y="171.4" width="109.2" height="147" fill="#5a4a52"/><rect x="660.6" y="305.8" width="134.4" height="10.1" fill="#d8c8b0"/><clipPath id="c321"><path d="M784.4 255.4H839.2Q841.2 255.4 841.2 257.4V291.2Q841.2 293.2 839.2 293.2H784.4Q782.4 293.2 782.4 291.2V257.4Q782.4 255.4 784.4 255.4Z"/></clipPath><path d="M784.4 255.4H839.2Q841.2 255.4 841.2 257.4V291.2Q841.2 293.2 839.2 293.2H784.4Q782.4 293.2 782.4 291.2V257.4Q782.4 255.4 784.4 255.4Z" fill="#e9e6df"/><g clip-path="url(#c321)"><rect x="782.4" y="255.4" width="58.8" height="3" fill="#f7f5f0"/><rect x="782.4" y="287.9" width="58.8" height="5.3" fill="#c9c5bc"/><rect x="838.2" y="255.4" width="3" height="37.8" fill="#c9c5bc" opacity="0.7"/></g><path d="M784.4 255.4H839.2Q841.2 255.4 841.2 257.4V291.2Q841.2 293.2 839.2 293.2H784.4Q782.4 293.2 782.4 291.2V257.4Q782.4 255.4 784.4 255.4Z" fill="none" stroke="#8a8680" stroke-width="1" stroke-linecap="round" stroke-linejoin="round"/><rect x="874.8" y="171.4" width="109.2" height="147" fill="#5a4a52"/><rect x="883.2" y="179.8" width="92.4" height="126" fill="#2e2836"/><rect x="883.2" y="179.8" width="92.4" height="81.2" fill="#7a6a64"/><rect x="862.2" y="305.8" width="134.4" height="10.1" fill="#d8c8b0"/><rect x="1076.4" y="171.4" width="109.2" height="147" fill="#5a4a52"/><rect x="1084.8" y="179.8" width="92.4" height="126" fill="#2e2836"/><rect x="1084.8" y="179.8" width="92.4" height="96" fill="#7a6a64"/><rect x="1063.8" y="305.8" width="134.4" height="10.1" fill="#d8c8b0"/><clipPath id="c322"><path d="M1187.6 255.4H1242.4Q1244.4 255.4 1244.4 257.4V291.2Q1244.4 293.2 1242.4 293.2H1187.6Q1185.6 293.2 1185.6 291.2V257.4Q1185.6 255.4 1187.6 255.4Z"/></clipPath><path d="M1187.6 255.4H1242.4Q1244.4 255.4 1244.4 257.4V291.2Q1244.4 293.2 1242.4 293.2H1187.6Q1185.6 293.2 1185.6 291.2V257.4Q1185.6 255.4 1187.6 255.4Z" fill="#e9e6df"/><g clip-path="url(#c322)"><rect x="1185.6" y="255.4" width="58.8" height="3" fill="#f7f5f0"/><rect x="1185.6" y="287.9" width="58.8" height="5.3" fill="#c9c5bc"/><rect x="1241.4" y="255.4" width="3" height="37.8" fill="#c9c5bc" opacity="0.7"/></g><path d="M1187.6 255.4H1242.4Q1244.4 255.4 1244.4 257.4V291.2Q1244.4 293.2 1242.4 293.2H1187.6Q1185.6 293.2 1185.6 291.2V257.4Q1185.6 255.4 1187.6 255.4Z" fill="none" stroke="#8a8680" stroke-width="1" stroke-linecap="round" stroke-linejoin="round"/><rect x="1278" y="171.4" width="109.2" height="147" fill="#5a4a52"/><rect x="1286.4" y="179.8" width="92.4" height="126" fill="#2e2836"/><rect x="1286.4" y="179.8" width="92.4" height="98.2" fill="#7a6a64"/><rect x="1265.4" y="305.8" width="134.4" height="10.1" fill="#d8c8b0"/><clipPath id="c323"><path d="M1389.2 255.4H1444Q1446 255.4 1446 257.4V291.2Q1446 293.2 1444 293.2H1389.2Q1387.2 293.2 1387.2 291.2V257.4Q1387.2 255.4 1389.2 255.4Z"/></clipPath><path d="M1389.2 255.4H1444Q1446 255.4 1446 257.4V291.2Q1446 293.2 1444 293.2H1389.2Q1387.2 293.2 1387.2 291.2V257.4Q1387.2 255.4 1389.2 255.4Z" fill="#e9e6df"/><g clip-path="url(#c323)"><rect x="1387.2" y="255.4" width="58.8" height="3" fill="#f7f5f0"/><rect x="1387.2" y="287.9" width="58.8" height="5.3" fill="#c9c5bc"/><rect x="1443" y="255.4" width="3" height="37.8" fill="#c9c5bc" opacity="0.7"/></g><path d="M1389.2 255.4H1444Q1446 255.4 1446 257.4V291.2Q1446 293.2 1444 293.2H1389.2Q1387.2 293.2 1387.2 291.2V257.4Q1387.2 255.4 1389.2 255.4Z" fill="none" stroke="#8a8680" stroke-width="1" stroke-linecap="round" stroke-linejoin="round"/><rect x="-1141.2" y="-80.6" width="109.2" height="147" fill="#5a4a52"/><rect x="-1132.8" y="-72.2" width="92.4" height="126" fill="#2e2836"/><rect x="-1132.8" y="-72.2" width="92.4" height="83.1" fill="#7a6a64"/><rect x="-1153.8" y="53.8" width="134.4" height="10.1" fill="#d8c8b0"/><rect x="-939.6" y="-80.6" width="109.2" height="147" fill="#5a4a52"/><rect x="-952.2" y="53.8" width="134.4" height="10.1" fill="#d8c8b0"/><rect x="-738" y="-80.6" width="109.2" height="147" fill="#5a4a52"/><rect x="-729.6" y="-72.2" width="92.4" height="126" fill="#2e2836"/><rect x="-729.6" y="-72.2" width="92.4" height="87.5" fill="#7a6a64"/><rect x="-750.6" y="53.8" width="134.4" height="10.1" fill="#d8c8b0"/><rect x="-729.6" y="66.4" width="18.5" height="34.3" fill="#e04a3a"/><rect x="-704.4" y="66.4" width="18.5" height="33.2" fill="#f4f0e6"/><rect x="-679.2" y="66.4" width="18.5" height="47.3" fill="#3a7be0"/><rect x="-654" y="66.4" width="18.5" height="34" fill="#f0c23a"/><rect x="-536.4" y="-80.6" width="109.2" height="147" fill="#5a4a52"/><rect x="-528" y="-72.2" width="92.4" height="126" fill="#2e2836"/><rect x="-528" y="-72.2" width="92.4" height="34.8" fill="#7a6a64"/><rect x="-549" y="53.8" width="134.4" height="10.1" fill="#d8c8b0"/><rect x="-528" y="66.4" width="18.5" height="44.8" fill="#e04a3a"/><rect x="-502.8" y="66.4" width="18.5" height="29.2" fill="#f4f0e6"/><rect x="-477.6" y="66.4" width="18.5" height="46.3" fill="#3a7be0"/><rect x="-452.4" y="66.4" width="18.5" height="30.7" fill="#f0c23a"/><rect x="-334.8" y="-80.6" width="109.2" height="147" fill="#5a4a52"/><rect x="-326.4" y="-72.2" width="92.4" height="126" fill="#2e2836"/><rect x="-326.4" y="-72.2" width="92.4" height="26.8" fill="#7a6a64"/><rect x="-347.4" y="53.8" width="134.4" height="10.1" fill="#d8c8b0"/><rect x="-133.2" y="-80.6" width="109.2" height="147" fill="#5a4a52"/><rect x="-124.8" y="-72.2" width="92.4" height="126" fill="#2e2836"/><rect x="-124.8" y="-72.2" width="92.4" height="74.8" fill="#7a6a64"/><rect x="-145.8" y="53.8" width="134.4" height="10.1" fill="#d8c8b0"/><rect x="-124.8" y="66.4" width="18.5" height="36.2" fill="#e04a3a"/><rect x="-99.6" y="66.4" width="18.5" height="36.7" fill="#f4f0e6"/><rect x="-74.4" y="66.4" width="18.5" height="34.6" fill="#3a7be0"/><rect x="-49.2" y="66.4" width="18.5" height="26" fill="#f0c23a"/><rect x="68.4" y="-80.6" width="109.2" height="147" fill="#5a4a52"/><rect x="55.8" y="53.8" width="134.4" height="10.1" fill="#d8c8b0"/><rect x="270" y="-80.6" width="109.2" height="147" fill="#5a4a52"/><rect x="278.4" y="-72.2" width="92.4" height="126" fill="#2e2836"/><rect x="278.4" y="-72.2" width="92.4" height="94.5" fill="#7a6a64"/><rect x="257.4" y="53.8" width="134.4" height="10.1" fill="#d8c8b0"/><rect x="471.6" y="-80.6" width="109.2" height="147" fill="#5a4a52"/><rect x="459" y="53.8" width="134.4" height="10.1" fill="#d8c8b0"/><rect x="673.2" y="-80.6" width="109.2" height="147" fill="#5a4a52"/><rect x="660.6" y="53.8" width="134.4" height="10.1" fill="#d8c8b0"/><rect x="874.8" y="-80.6" width="109.2" height="147" fill="#5a4a52"/><rect x="883.2" y="-72.2" width="92.4" height="126" fill="#2e2836"/><rect x="883.2" y="-72.2" width="92.4" height="91.9" fill="#7a6a64"/><rect x="862.2" y="53.8" width="134.4" height="10.1" fill="#d8c8b0"/><rect x="1076.4" y="-80.6" width="109.2" height="147" fill="#5a4a52"/><rect x="1084.8" y="-72.2" width="92.4" height="126" fill="#2e2836"/><rect x="1084.8" y="-72.2" width="92.4" height="92.4" fill="#7a6a64"/><rect x="1063.8" y="53.8" width="134.4" height="10.1" fill="#d8c8b0"/><rect x="1084.8" y="66.4" width="18.5" height="44.5" fill="#e04a3a"/><rect x="1110" y="66.4" width="18.5" height="50.3" fill="#f4f0e6"/><rect x="1135.2" y="66.4" width="18.5" height="25.4" fill="#3a7be0"/><rect x="1160.4" y="66.4" width="18.5" height="35.4" fill="#f0c23a"/><rect x="1278" y="-80.6" width="109.2" height="147" fill="#5a4a52"/><rect x="1286.4" y="-72.2" width="92.4" height="126" fill="#2e2836"/><rect x="1286.4" y="-72.2" width="92.4" height="38.8" fill="#7a6a64"/><rect x="1265.4" y="53.8" width="134.4" height="10.1" fill="#d8c8b0"/><rect x="-1141.2" y="-332.6" width="109.2" height="147" fill="#5a4a52"/><rect x="-1132.8" y="-324.2" width="92.4" height="126" fill="#2e2836"/><rect x="-1132.8" y="-324.2" width="92.4" height="98.1" fill="#7a6a64"/><rect x="-1153.8" y="-198.2" width="134.4" height="10.1" fill="#d8c8b0"/><rect x="-939.6" y="-332.6" width="109.2" height="147" fill="#5a4a52"/><rect x="-952.2" y="-198.2" width="134.4" height="10.1" fill="#d8c8b0"/><rect x="-738" y="-332.6" width="109.2" height="147" fill="#5a4a52"/><rect x="-750.6" y="-198.2" width="134.4" height="10.1" fill="#d8c8b0"/><rect x="-536.4" y="-332.6" width="109.2" height="147" fill="#5a4a52"/><rect x="-528" y="-324.2" width="92.4" height="126" fill="#2e2836"/><rect x="-528" y="-324.2" width="92.4" height="46" fill="#7a6a64"/><rect x="-549" y="-198.2" width="134.4" height="10.1" fill="#d8c8b0"/><rect x="-334.8" y="-332.6" width="109.2" height="147" fill="#5a4a52"/><rect x="-326.4" y="-324.2" width="92.4" height="126" fill="#2e2836"/><rect x="-326.4" y="-324.2" width="92.4" height="67.3" fill="#7a6a64"/><rect x="-347.4" y="-198.2" width="134.4" height="10.1" fill="#d8c8b0"/><rect x="-133.2" y="-332.6" width="109.2" height="147" fill="#5a4a52"/><rect x="-124.8" y="-324.2" width="92.4" height="126" fill="#2e2836"/><rect x="-124.8" y="-324.2" width="92.4" height="83.3" fill="#7a6a64"/><rect x="-145.8" y="-198.2" width="134.4" height="10.1" fill="#d8c8b0"/><rect x="68.4" y="-332.6" width="109.2" height="147" fill="#5a4a52"/><rect x="76.8" y="-324.2" width="92.4" height="126" fill="#2e2836"/><rect x="76.8" y="-324.2" width="92.4" height="46" fill="#7a6a64"/><rect x="55.8" y="-198.2" width="134.4" height="10.1" fill="#d8c8b0"/><clipPath id="c324"><path d="M179.6 -248.6H234.4Q236.4 -248.6 236.4 -246.6V-212.8Q236.4 -210.8 234.4 -210.8H179.6Q177.6 -210.8 177.6 -212.8V-246.6Q177.6 -248.6 179.6 -248.6Z"/></clipPath><path d="M179.6 -248.6H234.4Q236.4 -248.6 236.4 -246.6V-212.8Q236.4 -210.8 234.4 -210.8H179.6Q177.6 -210.8 177.6 -212.8V-246.6Q177.6 -248.6 179.6 -248.6Z" fill="#e9e6df"/><g clip-path="url(#c324)"><rect x="177.6" y="-248.6" width="58.8" height="3" fill="#f7f5f0"/><rect x="177.6" y="-216.1" width="58.8" height="5.3" fill="#c9c5bc"/><rect x="233.4" y="-248.6" width="3" height="37.8" fill="#c9c5bc" opacity="0.7"/></g><path d="M179.6 -248.6H234.4Q236.4 -248.6 236.4 -246.6V-212.8Q236.4 -210.8 234.4 -210.8H179.6Q177.6 -210.8 177.6 -212.8V-246.6Q177.6 -248.6 179.6 -248.6Z" fill="none" stroke="#8a8680" stroke-width="1" stroke-linecap="round" stroke-linejoin="round"/><rect x="270" y="-332.6" width="109.2" height="147" fill="#5a4a52"/><rect x="278.4" y="-324.2" width="92.4" height="126" fill="#2e2836"/><rect x="278.4" y="-324.2" width="92.4" height="30.3" fill="#7a6a64"/><rect x="257.4" y="-198.2" width="134.4" height="10.1" fill="#d8c8b0"/><rect x="471.6" y="-332.6" width="109.2" height="147" fill="#5a4a52"/><rect x="480" y="-324.2" width="92.4" height="126" fill="#2e2836"/><rect x="480" y="-324.2" width="92.4" height="100.6" fill="#7a6a64"/><rect x="459" y="-198.2" width="134.4" height="10.1" fill="#d8c8b0"/><rect x="480" y="-185.6" width="18.5" height="42.3" fill="#e04a3a"/><rect x="505.2" y="-185.6" width="18.5" height="26.6" fill="#f4f0e6"/><rect x="530.4" y="-185.6" width="18.5" height="37.9" fill="#3a7be0"/><rect x="555.6" y="-185.6" width="18.5" height="38.8" fill="#f0c23a"/><rect x="673.2" y="-332.6" width="109.2" height="147" fill="#5a4a52"/><rect x="681.6" y="-324.2" width="92.4" height="126" fill="#2e2836"/><rect x="681.6" y="-324.2" width="92.4" height="80.1" fill="#7a6a64"/><rect x="660.6" y="-198.2" width="134.4" height="10.1" fill="#d8c8b0"/><rect x="874.8" y="-332.6" width="109.2" height="147" fill="#5a4a52"/><rect x="883.2" y="-324.2" width="92.4" height="126" fill="#2e2836"/><rect x="883.2" y="-324.2" width="92.4" height="45.2" fill="#7a6a64"/><rect x="862.2" y="-198.2" width="134.4" height="10.1" fill="#d8c8b0"/><rect x="1076.4" y="-332.6" width="109.2" height="147" fill="#5a4a52"/><rect x="1084.8" y="-324.2" width="92.4" height="126" fill="#2e2836"/><rect x="1084.8" y="-324.2" width="92.4" height="42.7" fill="#7a6a64"/><rect x="1063.8" y="-198.2" width="134.4" height="10.1" fill="#d8c8b0"/><rect x="1278" y="-332.6" width="109.2" height="147" fill="#5a4a52"/><rect x="1286.4" y="-324.2" width="92.4" height="126" fill="#2e2836"/><rect x="1286.4" y="-324.2" width="92.4" height="80.9" fill="#7a6a64"/><rect x="1265.4" y="-198.2" width="134.4" height="10.1" fill="#d8c8b0"/><clipPath id="c325"><path d="M1389.2 -248.6H1444Q1446 -248.6 1446 -246.6V-212.8Q1446 -210.8 1444 -210.8H1389.2Q1387.2 -210.8 1387.2 -212.8V-246.6Q1387.2 -248.6 1389.2 -248.6Z"/></clipPath><path d="M1389.2 -248.6H1444Q1446 -248.6 1446 -246.6V-212.8Q1446 -210.8 1444 -210.8H1389.2Q1387.2 -210.8 1387.2 -212.8V-246.6Q1387.2 -248.6 1389.2 -248.6Z" fill="#e9e6df"/><g clip-path="url(#c325)"><rect x="1387.2" y="-248.6" width="58.8" height="3" fill="#f7f5f0"/><rect x="1387.2" y="-216.1" width="58.8" height="5.3" fill="#c9c5bc"/><rect x="1443" y="-248.6" width="3" height="37.8" fill="#c9c5bc" opacity="0.7"/></g><path d="M1389.2 -248.6H1444Q1446 -248.6 1446 -246.6V-212.8Q1446 -210.8 1444 -210.8H1389.2Q1387.2 -210.8 1387.2 -212.8V-246.6Q1387.2 -248.6 1389.2 -248.6Z" fill="none" stroke="#8a8680" stroke-width="1" stroke-linecap="round" stroke-linejoin="round"/><rect x="-1141.2" y="-584.6" width="109.2" height="147" fill="#5a4a52"/><rect x="-1153.8" y="-450.2" width="134.4" height="10.1" fill="#d8c8b0"/><clipPath id="c326"><path d="M-1030 -500.6H-975.2Q-973.2 -500.6 -973.2 -498.6V-464.8Q-973.2 -462.8 -975.2 -462.8H-1030Q-1032 -462.8 -1032 -464.8V-498.6Q-1032 -500.6 -1030 -500.6Z"/></clipPath><path d="M-1030 -500.6H-975.2Q-973.2 -500.6 -973.2 -498.6V-464.8Q-973.2 -462.8 -975.2 -462.8H-1030Q-1032 -462.8 -1032 -464.8V-498.6Q-1032 -500.6 -1030 -500.6Z" fill="#e9e6df"/><g clip-path="url(#c326)"><rect x="-1032" y="-500.6" width="58.8" height="3" fill="#f7f5f0"/><rect x="-1032" y="-468.1" width="58.8" height="5.3" fill="#c9c5bc"/><rect x="-976.2" y="-500.6" width="3" height="37.8" fill="#c9c5bc" opacity="0.7"/></g><path d="M-1030 -500.6H-975.2Q-973.2 -500.6 -973.2 -498.6V-464.8Q-973.2 -462.8 -975.2 -462.8H-1030Q-1032 -462.8 -1032 -464.8V-498.6Q-1032 -500.6 -1030 -500.6Z" fill="none" stroke="#8a8680" stroke-width="1" stroke-linecap="round" stroke-linejoin="round"/><rect x="-939.6" y="-584.6" width="109.2" height="147" fill="#5a4a52"/><rect x="-931.2" y="-576.2" width="92.4" height="126" fill="#2e2836"/><rect x="-931.2" y="-576.2" width="92.4" height="29.7" fill="#7a6a64"/><rect x="-952.2" y="-450.2" width="134.4" height="10.1" fill="#d8c8b0"/><rect x="-738" y="-584.6" width="109.2" height="147" fill="#5a4a52"/><rect x="-729.6" y="-576.2" width="92.4" height="126" fill="#2e2836"/><rect x="-729.6" y="-576.2" width="92.4" height="85.5" fill="#7a6a64"/><rect x="-750.6" y="-450.2" width="134.4" height="10.1" fill="#d8c8b0"/><rect x="-536.4" y="-584.6" width="109.2" height="147" fill="#5a4a52"/><rect x="-528" y="-576.2" width="92.4" height="126" fill="#2e2836"/><rect x="-528" y="-576.2" width="92.4" height="33.5" fill="#7a6a64"/><rect x="-549" y="-450.2" width="134.4" height="10.1" fill="#d8c8b0"/><rect x="-528" y="-437.6" width="18.5" height="39.3" fill="#e04a3a"/><rect x="-502.8" y="-437.6" width="18.5" height="29.3" fill="#f4f0e6"/><rect x="-477.6" y="-437.6" width="18.5" height="30.8" fill="#3a7be0"/><rect x="-452.4" y="-437.6" width="18.5" height="42.8" fill="#f0c23a"/><clipPath id="c327"><path d="M-425.2 -500.6H-370.4Q-368.4 -500.6 -368.4 -498.6V-464.8Q-368.4 -462.8 -370.4 -462.8H-425.2Q-427.2 -462.8 -427.2 -464.8V-498.6Q-427.2 -500.6 -425.2 -500.6Z"/></clipPath><path d="M-425.2 -500.6H-370.4Q-368.4 -500.6 -368.4 -498.6V-464.8Q-368.4 -462.8 -370.4 -462.8H-425.2Q-427.2 -462.8 -427.2 -464.8V-498.6Q-427.2 -500.6 -425.2 -500.6Z" fill="#e9e6df"/><g clip-path="url(#c327)"><rect x="-427.2" y="-500.6" width="58.8" height="3" fill="#f7f5f0"/><rect x="-427.2" y="-468.1" width="58.8" height="5.3" fill="#c9c5bc"/><rect x="-371.4" y="-500.6" width="3" height="37.8" fill="#c9c5bc" opacity="0.7"/></g><path d="M-425.2 -500.6H-370.4Q-368.4 -500.6 -368.4 -498.6V-464.8Q-368.4 -462.8 -370.4 -462.8H-425.2Q-427.2 -462.8 -427.2 -464.8V-498.6Q-427.2 -500.6 -425.2 -500.6Z" fill="none" stroke="#8a8680" stroke-width="1" stroke-linecap="round" stroke-linejoin="round"/><rect x="-334.8" y="-584.6" width="109.2" height="147" fill="#5a4a52"/><rect x="-326.4" y="-576.2" width="92.4" height="126" fill="#2e2836"/><rect x="-326.4" y="-576.2" width="92.4" height="44.7" fill="#7a6a64"/><rect x="-347.4" y="-450.2" width="134.4" height="10.1" fill="#d8c8b0"/><rect x="-133.2" y="-584.6" width="109.2" height="147" fill="#5a4a52"/><rect x="-145.8" y="-450.2" width="134.4" height="10.1" fill="#d8c8b0"/><rect x="68.4" y="-584.6" width="109.2" height="147" fill="#5a4a52"/><rect x="55.8" y="-450.2" width="134.4" height="10.1" fill="#d8c8b0"/><rect x="270" y="-584.6" width="109.2" height="147" fill="#5a4a52"/><rect x="278.4" y="-576.2" width="92.4" height="126" fill="#2e2836"/><rect x="278.4" y="-576.2" width="92.4" height="94.9" fill="#7a6a64"/><rect x="257.4" y="-450.2" width="134.4" height="10.1" fill="#d8c8b0"/><rect x="471.6" y="-584.6" width="109.2" height="147" fill="#5a4a52"/><rect x="480" y="-576.2" width="92.4" height="126" fill="#2e2836"/><rect x="480" y="-576.2" width="92.4" height="86.6" fill="#7a6a64"/><rect x="459" y="-450.2" width="134.4" height="10.1" fill="#d8c8b0"/><rect x="480" y="-437.6" width="18.5" height="38" fill="#e04a3a"/><rect x="505.2" y="-437.6" width="18.5" height="37" fill="#f4f0e6"/><rect x="530.4" y="-437.6" width="18.5" height="45" fill="#3a7be0"/><rect x="555.6" y="-437.6" width="18.5" height="39.8" fill="#f0c23a"/><rect x="673.2" y="-584.6" width="109.2" height="147" fill="#5a4a52"/><rect x="660.6" y="-450.2" width="134.4" height="10.1" fill="#d8c8b0"/><rect x="874.8" y="-584.6" width="109.2" height="147" fill="#5a4a52"/><rect x="883.2" y="-576.2" width="92.4" height="126" fill="#2e2836"/><rect x="883.2" y="-576.2" width="92.4" height="32.6" fill="#7a6a64"/><rect x="862.2" y="-450.2" width="134.4" height="10.1" fill="#d8c8b0"/><rect x="1076.4" y="-584.6" width="109.2" height="147" fill="#5a4a52"/><rect x="1084.8" y="-576.2" width="92.4" height="126" fill="#2e2836"/><rect x="1084.8" y="-576.2" width="92.4" height="96.7" fill="#7a6a64"/><rect x="1063.8" y="-450.2" width="134.4" height="10.1" fill="#d8c8b0"/><rect x="1084.8" y="-437.6" width="18.5" height="30" fill="#e04a3a"/><rect x="1110" y="-437.6" width="18.5" height="33" fill="#f4f0e6"/><rect x="1135.2" y="-437.6" width="18.5" height="26.7" fill="#3a7be0"/><rect x="1160.4" y="-437.6" width="18.5" height="39.6" fill="#f0c23a"/><rect x="1278" y="-584.6" width="109.2" height="147" fill="#5a4a52"/><rect x="1265.4" y="-450.2" width="134.4" height="10.1" fill="#d8c8b0"/><rect x="1476.8" y="-60" width="25.2" height="454" fill="#000" opacity="0.15"/><rect x="2462" y="-60" width="200" height="454" fill="#c8a888"/><rect x="2520.8" y="171.4" width="109.2" height="147" fill="#5a4a52"/><rect x="2529.2" y="179.8" width="92.4" height="126" fill="#2e2836"/><rect x="2529.2" y="179.8" width="92.4" height="37.9" fill="#7a6a64"/><rect x="2508.2" y="305.8" width="134.4" height="10.1" fill="#d8c8b0"/><rect x="2520.8" y="-80.6" width="109.2" height="147" fill="#5a4a52"/><rect x="2508.2" y="53.8" width="134.4" height="10.1" fill="#d8c8b0"/><rect x="2529.2" y="66.4" width="18.5" height="38.3" fill="#e04a3a"/><rect x="2554.4" y="66.4" width="18.5" height="37.3" fill="#f4f0e6"/><rect x="2579.6" y="66.4" width="18.5" height="49.3" fill="#3a7be0"/><rect x="2604.8" y="66.4" width="18.5" height="37.4" fill="#f0c23a"/><rect x="2520.8" y="-332.6" width="109.2" height="147" fill="#5a4a52"/><rect x="2508.2" y="-198.2" width="134.4" height="10.1" fill="#d8c8b0"/><rect x="2529.2" y="-185.6" width="18.5" height="37.1" fill="#e04a3a"/><rect x="2554.4" y="-185.6" width="18.5" height="39.9" fill="#f4f0e6"/><rect x="2579.6" y="-185.6" width="18.5" height="32.9" fill="#3a7be0"/><rect x="2604.8" y="-185.6" width="18.5" height="39.6" fill="#f0c23a"/><rect x="2520.8" y="-584.6" width="109.2" height="147" fill="#5a4a52"/><rect x="2529.2" y="-576.2" width="92.4" height="126" fill="#2e2836"/><rect x="2529.2" y="-576.2" width="92.4" height="47.2" fill="#7a6a64"/><rect x="2508.2" y="-450.2" width="134.4" height="10.1" fill="#d8c8b0"/><clipPath id="c328"><path d="M2632 -500.6H2686.8Q2688.8 -500.6 2688.8 -498.6V-464.8Q2688.8 -462.8 2686.8 -462.8H2632Q2630 -462.8 2630 -464.8V-498.6Q2630 -500.6 2632 -500.6Z"/></clipPath><path d="M2632 -500.6H2686.8Q2688.8 -500.6 2688.8 -498.6V-464.8Q2688.8 -462.8 2686.8 -462.8H2632Q2630 -462.8 2630 -464.8V-498.6Q2630 -500.6 2632 -500.6Z" fill="#e9e6df"/><g clip-path="url(#c328)"><rect x="2630" y="-500.6" width="58.8" height="3" fill="#f7f5f0"/><rect x="2630" y="-468.1" width="58.8" height="5.3" fill="#c9c5bc"/><rect x="2685.8" y="-500.6" width="3" height="37.8" fill="#c9c5bc" opacity="0.7"/></g><path d="M2632 -500.6H2686.8Q2688.8 -500.6 2688.8 -498.6V-464.8Q2688.8 -462.8 2686.8 -462.8H2632Q2630 -462.8 2630 -464.8V-498.6Q2630 -500.6 2632 -500.6Z" fill="none" stroke="#8a8680" stroke-width="1" stroke-linecap="round" stroke-linejoin="round"/><rect x="2636.8" y="-60" width="25.2" height="454" fill="#000" opacity="0.15"/><rect x="-931.2" y="179.8" width="92.4" height="126" fill="#ffcf86"/><rect x="-931.2" y="179.8" width="92.4" height="45.7" fill="#8a6a5a" opacity="0.8"/><rect x="-528" y="179.8" width="92.4" height="126" fill="#ffcf86"/><rect x="-528" y="179.8" width="92.4" height="38.1" fill="#8a6a5a" opacity="0.8"/><rect x="681.6" y="179.8" width="92.4" height="126" fill="#ffcf86"/><rect x="681.6" y="179.8" width="92.4" height="54.6" fill="#8a6a5a" opacity="0.8"/><rect x="-931.2" y="-72.2" width="92.4" height="126" fill="#cfe0ff"/><rect x="-931.2" y="-72.2" width="92.4" height="28.1" fill="#8a6a5a" opacity="0.8"/><rect x="76.8" y="-72.2" width="92.4" height="126" fill="#ffcf86"/><rect x="76.8" y="-72.2" width="92.4" height="34.8" fill="#8a6a5a" opacity="0.8"/><rect x="480" y="-72.2" width="92.4" height="126" fill="#ffcf86"/><rect x="480" y="-72.2" width="92.4" height="22.2" fill="#8a6a5a" opacity="0.8"/><rect x="681.6" y="-72.2" width="92.4" height="126" fill="#ffcf86"/><rect x="681.6" y="-72.2" width="92.4" height="31" fill="#8a6a5a" opacity="0.8"/><rect x="-931.2" y="-324.2" width="92.4" height="126" fill="#cfe0ff"/><rect x="-931.2" y="-324.2" width="92.4" height="56.1" fill="#8a6a5a" opacity="0.8"/><rect x="-729.6" y="-324.2" width="92.4" height="126" fill="#cfe0ff"/><rect x="-729.6" y="-324.2" width="92.4" height="56.2" fill="#8a6a5a" opacity="0.8"/><rect x="-1132.8" y="-576.2" width="92.4" height="126" fill="#ffcf86"/><rect x="-1132.8" y="-576.2" width="92.4" height="49.9" fill="#8a6a5a" opacity="0.8"/><rect x="-124.8" y="-576.2" width="92.4" height="126" fill="#ffcf86"/><rect x="-124.8" y="-576.2" width="92.4" height="42.4" fill="#8a6a5a" opacity="0.8"/><rect x="76.8" y="-576.2" width="92.4" height="126" fill="#ffcf86"/><rect x="76.8" y="-576.2" width="92.4" height="19.7" fill="#8a6a5a" opacity="0.8"/><rect x="681.6" y="-576.2" width="92.4" height="126" fill="#ffcf86"/><rect x="681.6" y="-576.2" width="92.4" height="65.1" fill="#8a6a5a" opacity="0.8"/><rect x="1286.4" y="-576.2" width="92.4" height="126" fill="#cfe0ff"/><rect x="1286.4" y="-576.2" width="92.4" height="22.5" fill="#8a6a5a" opacity="0.8"/><rect x="2529.2" y="-72.2" width="92.4" height="126" fill="#ffcf86"/><rect x="2529.2" y="-72.2" width="92.4" height="62.3" fill="#8a6a5a" opacity="0.8"/><rect x="2529.2" y="-324.2" width="92.4" height="126" fill="#ffcf86"/><rect x="2529.2" y="-324.2" width="92.4" height="64.6" fill="#8a6a5a" opacity="0.8"/></svg>
